<?xml version="1.0" encoding="utf-8"?>
<!-- Generator: Adobe Illustrator 16.0.0, SVG Export Plug-In . SVG Version: 6.00 Build 0)  -->
<!DOCTYPE svg PUBLIC "-//W3C//DTD SVG 1.1//EN" "http://www.w3.org/Graphics/SVG/1.1/DTD/svg11.dtd">
<svg version="1.1" id="レイヤー_1" xmlns="http://www.w3.org/2000/svg" xmlns:xlink="http://www.w3.org/1999/xlink" x="0px"
	 y="0px" width="61.5px" height="61.5px" viewBox="0 0 61.5 61.5" enable-background="new 0 0 61.5 61.5" xml:space="preserve">
<path fill="#3763A8" d="M30.7,0C13.8,0,0,13.8,0,30.7c0,17,13.8,30.7,30.7,30.7c17,0,30.7-13.801,30.7-30.7C61.5,13.8,47.7,0,30.7,0
	z"/>
<path fill="#F0F0F1" d="M33.8,25.1c1.4,0,2.7,0,4.101,0c0.399,0,0.5,0.1,0.5,0.5C38.2,27,38.1,28.5,38,29.9c0,0.5-0.2,0.6-0.7,0.6
	c-1.1,0-2.2,0-3.3,0c-0.5,0-0.7,0.2-0.7,0.7c0,2.6,0,5.1,0,7.7l0,0c0,2.6,0,5.1,0,7.699c0,0.5-0.1,0.601-0.6,0.601
	c-1.8,0-3.6,0-5.4,0c-0.5,0-0.6-0.2-0.6-0.601c0-5,0-10,0-14.899c0-0.2,0-0.3,0-0.5c0-0.4-0.2-0.6-0.6-0.6c-0.8,0-1.6,0-2.4,0
	c-0.3,0-0.5-0.1-0.5-0.5c0-1.5,0-3.1,0-4.6c0-0.4,0.2-0.5,0.5-0.5c0.8,0,1.6,0,2.4,0c0.4,0,0.6-0.2,0.6-0.6c0-1.2,0-2.4,0-3.6
	c0-1.3,0.3-2.6,1-3.8c0.9-1.6,2.4-2.3,4.1-2.6c2.101-0.4,4.2-0.2,6.4-0.2c0.3,0,0.399,0.1,0.399,0.4c0,1.6,0,3.2,0,4.8
	c0,0.3-0.1,0.4-0.399,0.4c-0.9,0-1.9,0-2.8,0c-1.4,0.1-1.9,0.7-1.9,2c0,0.9,0,1.8,0,2.7C33.2,25,33.3,25.2,33.8,25.1z"/>
</svg>
