<?xml version="1.0" encoding="utf-8"?>
<!-- Generator: Adobe Illustrator 16.0.0, SVG Export Plug-In . SVG Version: 6.00 Build 0)  -->
<!DOCTYPE svg PUBLIC "-//W3C//DTD SVG 1.1//EN" "http://www.w3.org/Graphics/SVG/1.1/DTD/svg11.dtd">
<svg version="1.1" id="レイヤー_1" xmlns="http://www.w3.org/2000/svg" xmlns:xlink="http://www.w3.org/1999/xlink" x="0px"
	 y="0px" width="516.549px" height="37px" viewBox="0 0 516.549 37" enable-background="new 0 0 516.549 37" xml:space="preserve">
<g>
	<path fill="#54ABF4" d="M203.925,9.088c-0.235-0.236-0.505-0.303-0.707-0.203c-1.012,0.54-2.46,1.382-3.674,2.224
		c2.528,2.597,4.449,6.168,5.763,10.009c0.101,0.271,0.236,0.439,0.438,0.439c0.135,0,0.27-0.068,0.438-0.135
		c1.113-0.54,2.628-1.55,3.505-2.292c0.27-0.236,0.27-0.404,0.168-0.672C208.643,14.986,206.385,11.582,203.925,9.088z"/>
	<path fill="#54ABF4" d="M233.133,11.212c-0.068-1.113-0.135-2.427-0.303-3.539c-0.034-0.303-0.304-0.471-0.607-0.371
		c-1.178,0.371-2.864,0.775-4.112,1.043c0.237-0.875,0.406-1.617,0.675-2.458c0.202-0.574,0.404-0.842,0.674-1.316
		c0.168-0.235,0.269-0.471,0.269-0.639c0-0.269-0.067-0.54-0.438-0.675c-1.517-0.604-3.37-0.908-5.426-1.212
		c0.034,1.145-0.068,2.189-0.202,3.033c-0.235,1.482-0.505,2.796-0.842,4.245c-2.089,0.237-3.942,0.371-5.965,0.371
		c-1.011,0-1.618,0-2.326-0.067c0.134,1.349,0.27,3.135,0.438,4.111c0.067,0.473,0.235,0.574,0.774,0.574
		c1.583,0.033,4.078-0.101,5.797-0.271c-1.753,5.496-3.707,10.684-5.898,15.638c-0.168,0.371,0,0.606,0.37,0.809
		c1.113,0.64,2.629,1.282,3.539,1.686c0.405,0.132,0.709,0.132,0.91-0.371c2.191-5.628,3.977-10.852,6.335-18.637
		c1.989-0.371,3.539-0.708,5.764-1.246C233.031,11.817,233.167,11.648,233.133,11.212z"/>
	<path fill="#54ABF4" d="M159.216,5.618c-4.719,0-8.661,1.617-11.56,4.649c-2.426,2.595-3.841,5.898-3.841,9.639
		c0,6.268,3.942,9.2,6.841,9.2c2.663,0,4.347-1.01,6.032-3.506c2.393-3.537,4.112-9.502,4.651-15.535
		c4.145,0.304,6.57,4.044,6.57,7.684c0,5.426-3.504,8.458-10.345,9.739c1.449,1.146,2.325,2.257,2.864,3.268
		c0.27,0.506,0.641,0.709,1.113,0.709c0.202,0,0.438-0.035,0.707-0.102c6.673-1.921,10.919-5.764,10.919-13.177
		C173.167,11.28,168.382,5.618,159.216,5.618z M152.711,22.063c-0.775,1.348-1.282,1.616-1.955,1.616
		c-1.012,0-2.225-1.379-2.225-3.907c0-2.157,0.809-4.549,2.19-6.235c1.348-1.617,3.202-2.832,5.459-3.336
		C155.508,15.256,154.093,19.704,152.711,22.063z"/>
	<path fill="#54ABF4" d="M194.759,10.502c-0.573,0-1.382,0.036-2.225,0.103c0.439-1.55,0.674-2.392,1.01-3.471
		c0.169-0.505,0.338-0.876,0.743-1.516c0.168-0.204,0.235-0.404,0.235-0.608c0-0.335-0.235-0.64-0.607-0.775
		c-1.415-0.538-3.1-0.978-5.122-1.313c0.034,1.449-0.134,2.696-0.438,4.245c-0.204,1.046-0.472,2.292-0.944,3.91
		c-1.079,0.136-2.325,0.304-3.639,0.404c-1.518,0.136-3.303,0.271-4.955,0.237c0.337,1.887,0.809,3.673,1.146,4.516
		c0.168,0.438,0.472,0.674,0.809,0.674l0.438-0.136c0.405-0.203,0.91-0.27,1.719-0.438c0.943-0.203,2.055-0.371,2.932-0.504
		c-1.583,4.515-3.403,8.391-6.099,12.806l-0.169,0.504c0,0.203,0.102,0.407,0.371,0.606c0.809,0.708,2.157,1.483,3.202,2.057
		l0.438,0.135c0.235,0,0.404-0.168,0.606-0.507c2.764-4.987,4.988-10.548,7.01-16.445c0.91-0.101,1.753-0.17,2.392-0.17
		c1.079,0.036,1.483,0.54,1.483,2.899c0,2.999-0.473,5.864-1.112,7.717c-0.439,1.349-0.978,1.653-1.753,1.653
		c-0.875,0-2.527-0.203-4.145-0.911c0.438,1.517,0.539,2.965,0.573,4.213c-0.034,0.707,0.168,1.011,0.539,1.144
		c1.078,0.371,2.393,0.54,3.909,0.54c2.056,0,4.044-1.011,5.157-3.436c1.28-2.764,1.751-7.179,1.751-10.852
		C199.982,12.728,197.926,10.538,194.759,10.502z"/>
	<path fill="#54ABF4" d="M29.746,12.02l-0.404-0.203l-0.236,0.103l-1.92,1.346c1.348,1.146,2.696,2.832,3.538,4.181l0.337,0.201
		l0.269-0.101l1.583-1.246c0.169-0.136,0.204-0.236,0.204-0.338l-0.136-0.335C32.274,14.515,30.825,12.895,29.746,12.02z"/>
	<path fill="#54ABF4" d="M97.766,3.528l-0.337-0.168l-0.235,0.102l-2.022,1.415c1.28,1.045,2.663,2.798,3.572,4.18l0.337,0.235
		l0.27-0.134l1.617-1.215l0.203-0.335l-0.101-0.271C100.193,6.021,98.743,4.269,97.766,3.528z"/>
	<path fill="#54ABF4" d="M242.4,27.018c-1.854,0.303-4.179,0.538-6.1,0.538c-3.033,0-4.415-0.707-4.55-2.899
		c-0.034-0.335-0.102-0.504-0.371-0.504c-1.078-0.034-2.73,0.067-4.179,0.201c0.102,2.459,0.371,4.381,1.482,5.596
		c1.584,1.786,4.146,2.459,8.999,2.459c1.651,0,3.539-0.136,5.055-0.404c0.472-0.067,0.641-0.236,0.607-0.607
		c0-1.079-0.168-2.798-0.371-4.045C242.906,27.018,242.703,26.949,242.4,27.018z"/>
	<path fill="#54ABF4" d="M101.001,1.203L100.598,1l-0.237,0.1l-1.919,1.349c1.348,1.146,2.695,2.832,3.538,4.18l0.337,0.203
		l0.27-0.103l1.583-1.247c0.169-0.135,0.203-0.235,0.203-0.337l-0.135-0.335C103.529,3.696,102.08,2.079,101.001,1.203z"/>
	<path fill="#54ABF4" d="M132.568,25.836c-2.325,0.407-6.774,0.878-10.076,0.878c-4.247,0.033-5.561-0.911-5.561-2.494
		c0-1.416,1.248-2.798,3.505-4.314c2.056-1.382,6.167-3.404,8.797-4.348c1.482-0.54,2.561-0.911,3.605-1.111
		c0.404-0.068,0.606-0.304,0.606-0.675c0-0.235-0.067-0.506-0.235-0.809c-0.607-1.179-1.819-2.662-3.101-4.044
		c-0.943,0.911-1.685,1.382-2.729,1.99c-1.18,0.672-2.899,1.582-4.483,2.393c-0.371-1.45-0.742-3.236-0.943-5.36
		c-0.068-0.739-0.169-1.65-0.169-2.358c0-0.538,0.203-1.112,0.203-1.516c0-0.371-0.203-0.574-0.675-0.641
		c-1.449-0.27-3.371-0.405-5.425-0.438c0.37,0.978,0.539,2.292,0.774,3.943c0.338,2.832,0.979,6.099,1.753,8.56
		c-3.875,2.459-6.605,5.056-6.605,9.267c0,4.987,3.842,7.011,11.493,7.011c3.437,0,7.178-0.238,10.076-0.606
		c0.438-0.068,0.64-0.203,0.606-0.742c-0.102-1.382-0.235-3.068-0.438-4.178C133.479,25.836,133.209,25.703,132.568,25.836z"/>
	<path fill="#54ABF4" d="M311.972,26.444c0.402-0.404,0.674-0.572,0.942-0.708c0.237-0.136,0.405-0.268,0.405-0.471
		c0-0.204-0.101-0.371-0.371-0.54c-0.505-0.336-1.248-0.775-1.956-1.146c2.461,0,3.372,0.067,3.573,0.067
		c0.438,0,0.472-0.033,0.472-0.438v-2.965c0-0.404-0.034-0.438-0.472-0.438c-0.236,0-1.348,0.067-4.549,0.067h-1.179v-2.257
		c2.662,0,3.571,0.067,3.809,0.067c0.404,0,0.437-0.034,0.437-0.474v-2.896c0-0.438-0.033-0.471-0.437-0.471
		c-0.237,0-1.146,0.067-3.809,0.067v-2.057h0.27c3.167,0,4.279,0.068,4.48,0.068c0.439,0,0.473-0.036,0.473-0.473
		c0-0.203-0.067-0.909-0.067-2.495V5.785c0-1.55,0.067-2.257,0.067-2.492c0-0.439-0.033-0.473-0.473-0.473
		c-0.201,0-1.348,0.069-4.515,0.069h-17.322c-3.135,0-4.279-0.069-4.516-0.069c-0.404,0-0.438,0.033-0.438,0.473
		c0,0.235,0.067,2.561,0.067,7.581c0,5.731-0.202,9.201-0.674,11.863c-0.471,2.662-1.281,5.021-2.561,6.976
		c0.876,0.54,1.988,1.583,2.932,2.729c0.371,0.473,0.606,0.742,0.808,0.742c0.203,0,0.406-0.27,0.709-0.842
		c1.246-2.326,1.989-4.787,2.594-7.954c0.034-0.236,0.068-0.471,0.134-0.743c1.113-0.067,2.258-0.033,3.372-0.067v5.156
		c-1.181,0.102-2.325,0.136-3.605,0.136c0.268,1.483,0.605,3.067,0.842,4.01c0.168,0.608,0.371,0.808,0.607,0.808
		c0.201,0,0.404-0.1,0.707-0.235c0.237-0.1,0.574-0.168,1.045-0.235c2.461-0.37,5.63-0.875,8.392-1.415
		c1.315-0.271,1.348-0.236,1.449-1.719c0.068-0.538,0.134-1.113,0.203-1.652c2.123,2.224,4.92,3.841,8.39,4.785
		c1.349,0.304,1.316,0.271,1.854-1.078c0.472-1.179,1.146-2.291,1.854-3c-2.124-0.269-3.91-0.74-5.427-1.346
		C310.961,27.422,311.398,27.018,311.972,26.444z M291.448,6.596h17.961V8.28h-17.961V6.596z M296.268,13.908
		c-2.427,0-3.337-0.067-3.506-0.067c-0.437,0-0.471,0.033-0.471,0.471v2.896c0,0.439,0.034,0.474,0.471,0.474
		c0.168,0,1.079-0.067,3.506-0.067v2.257h-0.44c-2.459,0-3.874-0.033-4.616-0.033c0.168-1.853,0.237-3.843,0.237-5.628v-2.359h4.819
		V13.908z M298.66,28.264v-4.685h1.954c0.607,1.449,1.483,2.831,2.494,4.045C301.625,27.86,300.142,28.096,298.66,28.264z
		 M304.455,19.872h-3.807v-2.257h3.807V19.872z M304.455,13.908h-3.807v-2.057h3.807V13.908z M308.769,24.186
		c-0.605,0.675-1.078,1.146-1.616,1.584c-0.709-0.606-1.316-1.381-1.821-2.191h3.943C309.14,23.782,308.972,23.983,308.769,24.186z"
		/>
	<path fill="#54ABF4" d="M26.511,14.345l-0.337-0.168l-0.236,0.101l-2.021,1.416c1.281,1.043,2.663,2.796,3.572,4.178l0.337,0.235
		l0.269-0.134l1.618-1.212l0.202-0.338l-0.101-0.27C28.938,16.84,27.488,15.087,26.511,14.345z"/>
	<path fill="#54ABF4" d="M62.931,10.942c-0.068-0.237-0.236-0.304-0.607-0.168c-1.854,0.64-4.145,1.213-6.538,1.685
		c-0.269-0.641-0.606-1.449-0.876-2.191c2.292-0.437,4.752-1.011,6.942-1.719c0.371-0.1,0.54-0.303,0.439-0.674
		c-0.169-0.908-0.439-2.021-0.776-2.965c-0.101-0.235-0.303-0.271-0.606-0.168c-2.427,0.775-4.583,1.28-7.111,1.786
		c-0.168-0.404-0.303-0.809-0.472-1.617c-0.102-0.338-0.135-0.641-0.169-0.943c-0.033-0.27,0.035-0.574,0.035-0.81
		c0-0.404-0.338-0.639-0.843-0.639c-1.583,0.033-3.403,0.235-5.256,0.572c0.539,0.742,0.809,1.382,1.112,2.157
		c0.303,0.842,0.505,1.482,0.775,2.157c-2.696,0.337-5.628,0.538-8.729,0.438c0.202,1.347,0.473,2.729,0.641,3.471
		c0.1,0.438,0.269,0.539,0.741,0.539c2.898,0,5.729-0.335,8.594-0.743c0.303,0.675,0.708,1.653,0.978,2.193
		c-3.033,0.437-5.999,0.672-9.403,0.672c0.202,1.282,0.438,2.426,0.808,3.605c0.102,0.371,0.237,0.54,0.674,0.507
		c3.1-0.1,6.437-0.438,9.706-0.944c0.674,1.045,1.55,2.326,2.19,3.101c-1.314-0.471-2.898-0.707-5.089-0.707
		c-4.819,0-8.896,1.853-8.896,6.335c0,4.042,3.842,6.875,12.941,6.875c0.943,0,1.651-0.033,2.359-0.068
		c0.607-0.033,0.809-0.168,0.91-0.539c0.37-1.146,0.707-2.629,0.943-4.078c0.034-0.337-0.067-0.505-0.404-0.472
		c-0.775,0.036-2.292,0.204-4.145,0.204c-5.594,0-7.785-0.844-7.785-2.494c0-1.316,1.617-2.091,4.516-2.091
		c2.393,0,4.92,0.438,6.471,1.213c0.809,0.404,1.517,0.775,2.157,1.282c0.202,0.168,0.371,0.269,0.539,0.269
		c0.202,0,0.371-0.136,0.606-0.404c0.708-0.809,1.45-1.82,1.989-2.831c0.101-0.201,0.168-0.371,0.168-0.505
		c0-0.235-0.135-0.405-0.405-0.674c-1.92-1.651-3.235-3.335-4.448-5.393c2.055-0.438,4.077-0.978,5.763-1.584
		c0.404-0.133,0.471-0.303,0.37-0.707C63.503,12.829,63.268,11.987,62.931,10.942z"/>
	<path fill="#54ABF4" d="M269.654,15.458c-3.035,0-6.066,0.942-8.596,2.932c0.405-1.854,0.776-3.607,1.113-5.731
		c2.764-0.335,4.987-0.775,7.684-1.415c0.37-0.067,0.438-0.235,0.438-0.606c-0.068-1.146-0.168-2.661-0.304-3.606
		c-0.033-0.404-0.335-0.404-0.775-0.304c-1.617,0.438-3.908,0.877-6.201,1.213c0.168-1.043,0.27-1.517,0.438-2.324
		c0.067-0.337,0.303-0.844,0.54-1.248c0.102-0.168,0.27-0.404,0.27-0.64c0-0.338-0.27-0.574-0.81-0.709
		c-1.213-0.335-3.202-0.64-5.156-0.842c0.134,0.842,0.134,1.617,0.066,2.528c-0.033,0.842-0.134,1.921-0.37,3.875
		c-2.528,0.237-4.988,0.337-7.549,0.303c0.134,1.316,0.404,3.203,0.573,4.045c0.068,0.371,0.336,0.54,0.741,0.54
		c1.618,0,3.606-0.136,5.594-0.304c-0.573,3.234-1.078,5.763-1.819,8.526c-0.168,0.608-0.371,1.179-0.607,1.82
		c-0.1,0.338-0.1,0.538-0.1,0.708c0,0.404,0.438,0.641,0.943,0.876c0.91,0.438,2.427,0.909,3.37,1.043
		c0.472,0.034,0.674-0.202,0.875-0.573c0.338-0.639,0.709-1.314,1.013-1.786c1.785-2.528,4.954-4.145,7.885-4.145
		c2.358,0,3.774,1.349,3.774,3.267c0,2.024-1.449,3.574-3.909,4.485c-2.866,1.043-5.358,1.313-9.673,1.582
		c1.011,0.775,1.854,2.192,2.46,3.505c0.201,0.473,0.438,0.674,0.843,0.674c0.674,0.034,2.19-0.101,3.268-0.27
		c3.167-0.471,6.539-1.415,8.797-3.032c2.324-1.651,3.537-4.078,3.537-6.944C278.011,18.524,274.573,15.458,269.654,15.458z"/>
	<path fill="#54ABF4" d="M97.766,25.736c-2.965,0.708-6.538,1.213-9.739,1.213c-6.066,0-7.617-1.078-7.617-2.899
		c0-0.607,0.303-1.55,0.742-2.224c0.134-0.201,0.1-0.437-0.236-0.64c-0.91-0.505-2.359-1.179-3.64-1.786
		c-1.213,1.954-1.887,3.37-1.887,5.292c0,5.257,4.685,7.346,12.267,7.378c3.909,0,7.751-0.335,10.986-0.943
		c0.472-0.1,0.64-0.236,0.607-0.571c-0.102-1.113-0.473-3.404-0.743-4.482C98.406,25.669,98.271,25.6,97.766,25.736z"/>
	<path fill="#54ABF4" d="M230.403,14.852c-0.068,1.247-0.034,2.728,0.034,4.146c2.022-0.371,4.01-0.607,5.897-0.607
		c1.651,0,3.404,0.134,5.324,0.471c0.675,0.1,0.843,0.033,0.876-0.606c0.102-1.011,0.168-2.696,0.102-3.774
		c0-0.54-0.27-0.572-0.607-0.639c-1.314-0.271-3.302-0.406-4.988-0.406c-1.482,0-4.077,0.237-5.931,0.641
		C230.538,14.211,230.437,14.345,230.403,14.852z"/>
	<path fill="#54ABF4" d="M25.871,26.747c-5.763-0.37-8.93-2.526-8.93-6.368c0-4.181,3.471-8.088,9.031-9.641
		c1.28-0.368,2.561-0.504,3.976-0.571c0.505,0,0.742-0.136,0.709-0.708c-0.035-0.978-0.236-2.696-0.439-3.875
		c-0.068-0.303-0.236-0.538-0.742-0.473c-9.099,1.045-15.94,1.956-20.895,2.664C5.92,8.177,4.235,8.381,2.045,8.448
		c0.539,1.988,1.045,3.74,1.55,4.818c0.167,0.439,0.438,0.575,0.673,0.575c0.271,0,0.507-0.103,0.843-0.271
		c0.473-0.168,0.876-0.268,2.258-0.606c3-0.605,6.033-1.28,10.211-2.021v0.067c-3.167,2.057-5.628,5.46-5.628,10.145
		c0,6.335,5.358,10.616,13.648,10.917c0.573,0.036,0.708-0.268,0.842-0.808c0.236-0.978,0.439-2.696,0.439-3.874
		C26.915,26.781,26.511,26.747,25.871,26.747z"/>
	<path fill="#54ABF4" d="M78.018,10.773c1.618,0.335,3.539,0.54,5.156,0.607c1.146,0.067,1.887,0.033,2.73-0.067
		c-0.876,0.607-2.292,1.582-3.809,2.561c1.214,0.337,2.427,0.909,3.471,1.584c0.204,0.1,0.371,0.168,0.573,0.168
		s0.439-0.068,0.641-0.204c3.067-2.021,5.493-3.2,9.167-3.639c0.404-0.033,0.607-0.203,0.607-0.842c0-1.146-0.136-2.629-0.338-3.975
		c-0.067-0.371-0.371-0.407-1.044-0.371c-2.326,0.2-4.719,0.302-7.583,0.302c-3.134,0-7.211-0.371-9.604-0.911
		c-0.236,1.55-0.371,2.865-0.438,4.078C77.546,10.538,77.614,10.705,78.018,10.773z"/>
	<path fill="#54ABF4" d="M447.551,10.773c-1.481,0.033-3.099,0.067-4.718,0.067h-1.348l0.034-2.393c0-2.057,0.033-2.932,0.303-3.674
		c0.067-0.268,0.135-0.471,0.135-0.639c0-0.338-0.167-0.54-0.707-0.641c-1.247-0.337-3.236-0.54-5.123-0.674
		c0.27,1.516,0.337,3.369,0.304,5.493l-0.034,2.561h-6.505V8.481c0-2.021,0-2.561,0.271-3.234c0.135-0.304,0.201-0.54,0.201-0.741
		c0-0.304-0.168-0.507-0.572-0.574c-1.147-0.269-3.033-0.471-5.225-0.607c0.303,2.157,0.371,3.099,0.371,5.123v2.425h-0.573
		c-2.527,0-4.854-0.067-6.672-0.168c0.034,1.45,0.067,3.136,0.168,4.281c0.034,0.505,0.168,0.708,0.673,0.641
		c1.315-0.102,3.942-0.168,5.83-0.168h0.573v1.179c0,1.92-0.034,3.741-0.134,5.594c-0.034,0.505,0.134,0.607,0.908,0.64
		c1.113,0.033,2.326,0.033,3.405,0c0.707-0.033,0.908-0.134,0.877-0.674c-0.034-1.246-0.068-3.774-0.068-5.628v-1.11h6.438
		c-0.103,3.639-0.643,6.031-1.99,8.155c-1.751,2.662-4.482,4.515-9.334,6c1.483,0.64,2.561,1.482,3.639,2.594
		c0.304,0.303,0.574,0.438,0.876,0.438c0.337,0,0.708-0.135,1.214-0.338c3.303-1.346,6.2-3.571,7.854-6.232
		c1.718-2.764,2.594-6.066,2.797-10.616h1.617c1.651,0,3.337,0.033,4.549,0.033c0.473,0.034,0.574-0.033,0.606-0.54
		c0.034-1.078,0.034-2.528,0-3.639C448.159,10.874,448.09,10.738,447.551,10.773z"/>
	<path fill="#54ABF4" d="M514.358,17.311c-3.506-2.088-7.144-3.47-10.818-4.616V7.503c0-1.719,0.102-2.494,0.271-2.865
		c0.135-0.335,0.235-0.64,0.235-0.875c0-0.337-0.201-0.574-0.707-0.707c-1.518-0.338-3.404-0.507-5.393-0.576
		c0.202,1.282,0.304,2.629,0.304,5.696v16.818c0,2.09-0.068,4.111-0.136,7.076c0,0.507,0.136,0.607,0.741,0.607
		c1.382,0.103,2.798,0.103,4.146,0c0.505,0,0.675-0.1,0.606-0.64c-0.067-2.628-0.102-4.517-0.102-6.978v-6.739
		c2.427,0.808,5.157,2.157,8.392,4.314c0.203,0.135,0.372,0.203,0.472,0.203c0.17,0,0.27-0.134,0.439-0.406
		c0.674-1.11,1.481-2.796,2.021-4.042l0.102-0.439C514.932,17.715,514.763,17.547,514.358,17.311z"/>
	<path fill="#54ABF4" d="M474.4,2.55c-0.674,1.517-1.18,2.259-2.562,3.874c-2.19,2.528-4.55,4.788-7.481,7.113
		c-3.066,2.459-6.302,4.582-10.75,6.808c1.313,0.707,2.561,1.416,3.707,2.559c0.303,0.304,0.606,0.507,0.943,0.507
		c0.201,0,0.404-0.067,0.64-0.203c2.327-1.315,5.662-3.539,8.527-5.828v6.57c0,2.863-0.068,5.156-0.136,7.819
		c-0.032,0.504,0.067,0.64,0.54,0.64c1.448,0.033,3.033,0.033,4.481,0c0.438,0,0.607-0.103,0.607-0.674
		c-0.067-2.494-0.136-5.224-0.136-7.954V12.895c1.314-1.279,2.696-2.693,3.843-4.009c1.111-1.179,1.617-1.55,2.257-1.886
		c0.338-0.204,0.539-0.54,0.539-0.844c0-0.235-0.1-0.471-0.335-0.674C478.041,4.639,476.288,3.561,474.4,2.55z"/>
	<path fill="#54ABF4" d="M409.261,20.017l-0.006-0.01c-0.653-1.042-1.57-1.825-2.7-2.333c0.029-0.017,0.056-0.032,0.085-0.049
		c0.025-0.014,0.482-0.275,1.069-0.794l0,0c0,0,0.001-0.001,0.002-0.001c0.003-0.003,0.005-0.005,0.008-0.007l0,0
		c0.585-0.497,1.051-1.031,1.384-1.612l0.004-0.008l0.003-0.007c0.594-1.114,0.897-2.3,0.896-3.528l-0.001-0.165h0
		c0.002-2.439-0.751-4.482-2.261-6.01l-0.003-0.004c-1.522-1.54-3.765-2.284-6.611-2.311h-0.003h-9.673
		c-0.979,0.002-1.771,0.794-1.772,1.772v26.569c0.002,0.979,0.794,1.771,1.772,1.772h9.408c0.721-0.001,1.804-0.103,2.513-0.234
		c0.02-0.004,0.759-0.143,1.701-0.483c0.938-0.342,2.08-0.872,2.923-1.729l0,0.001c0.002-0.002,0.004-0.004,0.006-0.007
		c0.001-0.001,0.003-0.002,0.004-0.003l0,0c1.603-1.569,2.411-3.724,2.433-6.33v-0.003V24.5c0.001-1.602-0.391-3.104-1.175-4.474
		L409.261,20.017z M401.046,28.042h-5.34c-0.358-0.001-0.658-0.3-0.658-0.658V21.08c0-0.358,0.3-0.657,0.658-0.658h4.134
		c0.622-0.001,1.709,0.089,2.322,0.193l0.051,0.009c0.131,0.026,0.495,0.107,0.882,0.261c0.389,0.151,0.794,0.383,1.018,0.644
		l-0.002-0.003c0.645,0.752,0.961,1.62,0.965,2.705c-0.004,1.056-0.317,1.91-0.966,2.668l-0.002,0.003l0,0
		C403.506,27.61,402.541,28.013,401.046,28.042z M403.665,9.193c0.649,0.716,0.966,1.543,0.97,2.597
		c-0.005,1.058-0.32,1.858-0.964,2.534l-0.009,0.009l-0.009,0.011c-0.597,0.682-1.546,1.064-3.012,1.068h-4.936
		c-0.358-0.001-0.658-0.3-0.658-0.658V8.847c0-0.358,0.3-0.657,0.658-0.658h3.72c0.625-0.001,1.713,0.083,2.331,0.18l0.05,0.009
		c0.128,0.023,0.482,0.097,0.863,0.237C403.047,8.751,403.443,8.961,403.665,9.193z"/>
	<polygon fill="#54ABF4" points="407.733,5.481 407.741,5.489 407.744,5.492 	"/>
	<path fill="#54ABF4" d="M354.848,3.038h-2.383c-0.478,0.002-0.906,0.184-1.247,0.458c-0.339,0.275-0.606,0.656-0.709,1.122
		l-3.632,16.899l-4.506-17.11l0.044,0.168c-0.123-0.458-0.402-0.826-0.747-1.094c-0.347-0.265-0.773-0.441-1.248-0.444h-0.977
		c-0.475,0.002-0.901,0.179-1.248,0.444c-0.345,0.268-0.624,0.635-0.748,1.093v0l-4.482,16.942l-3.614-16.897
		c-0.102-0.466-0.369-0.847-0.708-1.124c-0.341-0.274-0.769-0.455-1.247-0.458h-2.383c-0.406-0.001-0.802,0.145-1.087,0.421
		c-0.287,0.273-0.446,0.667-0.444,1.066c0,0.132,0.016,0.266,0.048,0.397l0,0l6.517,26.953l0,0c0.114,0.462,0.388,0.835,0.73,1.106
		c0.344,0.269,0.771,0.448,1.248,0.45h1.438c0.476-0.002,0.902-0.179,1.248-0.445c0.344-0.269,0.622-0.638,0.742-1.098l4.475-17.414
		l4.46,17.413c0.12,0.46,0.397,0.829,0.741,1.098c0.346,0.267,0.772,0.444,1.248,0.446h1.458c0.476-0.002,0.903-0.181,1.248-0.45
		c0.342-0.271,0.616-0.644,0.73-1.106l0,0l6.515-26.953v0c0.031-0.13,0.048-0.264,0.048-0.396c0.002-0.399-0.157-0.793-0.444-1.066
		C355.65,3.183,355.254,3.037,354.848,3.038z"/>
	<path fill="#54ABF4" d="M380.852,3.178h-15.838c-0.89,0.002-1.608,0.721-1.61,1.61v26.893c0.002,0.89,0.721,1.608,1.61,1.61h15.838
		c0.89-0.002,1.608-0.721,1.61-1.61v-2.029c-0.002-0.89-0.721-1.608-1.61-1.61h-11.585c-0.27,0-0.496-0.227-0.496-0.496v-6.429
		c0-0.27,0.227-0.496,0.496-0.496h9.581c0.89-0.002,1.608-0.721,1.61-1.61v-1.789c-0.002-0.89-0.721-1.608-1.61-1.61h-9.581
		c-0.27,0-0.496-0.227-0.496-0.496V8.923c0-0.27,0.227-0.496,0.496-0.496h11.585c0.89-0.002,1.608-0.721,1.61-1.61V4.788
		C382.46,3.898,381.741,3.18,380.852,3.178z"/>
</g>
</svg>
