<?xml version="1.0" encoding="utf-8"?>
<!-- Generator: Adobe Illustrator 16.0.0, SVG Export Plug-In . SVG Version: 6.00 Build 0)  -->
<!DOCTYPE svg PUBLIC "-//W3C//DTD SVG 1.1//EN" "http://www.w3.org/Graphics/SVG/1.1/DTD/svg11.dtd">
<svg version="1.1" id="レイヤー_1" xmlns="http://www.w3.org/2000/svg" xmlns:xlink="http://www.w3.org/1999/xlink" x="0px"
	 y="0px" width="61.5px" height="61.5px" viewBox="0 0 61.5 61.5" enable-background="new 0 0 61.5 61.5" xml:space="preserve">
<path fill="#54ABF4" d="M30.7,0C13.8,0,0,13.8,0,30.7c0,17,13.8,30.7,30.7,30.7c17,0,30.7-13.801,30.7-30.7C61.5,13.8,47.7,0,30.7,0
	z"/>
<path fill="#F0F0F1" d="M48,22.7l-0.1,0.1C47.1,24,46.1,25,44.9,25.9c-0.101,0.1-0.2,0.2-0.2,0.3c0,0.9,0,1.8-0.101,2.6
	c-0.3,2.4-1,4.601-2.1,6.7c-1,2-2.4,3.7-4,5.2c-1,0.899-2.2,1.7-3.4,2.399c-2.6,1.4-5.3,2-8.2,2.101c-1,0-2,0-3-0.2
	c-2.6-0.3-5.1-1.2-7.3-2.6c0,0-0.1,0-0.1-0.101c3.5,0.3,6.6-0.5,9.4-2.6c-0.2,0-0.4-0.101-0.6-0.101C22.7,39.2,21,37.8,20.1,35.4
	c-0.1-0.2,0-0.2,0.1-0.2c0.7,0.1,1.4,0.1,2,0c0.2,0,0.4-0.101,0.6-0.101c0-0.1-0.1-0.1-0.1-0.1c-1.4-0.3-2.5-1-3.4-2.1
	c-1-1.2-1.5-2.5-1.5-4c0-0.2,0-0.2,0.2-0.1c0.7,0.4,1.5,0.6,2.3,0.7c0.1,0,0.2,0,0.3,0c0-0.1-0.1-0.1-0.2-0.1
	c-0.8-0.6-1.4-1.3-1.9-2.2c-0.5-1-0.8-2.1-0.7-3.3c0-1,0.3-1.9,0.8-2.8c0.1-0.1,0.1-0.1,0.2,0c0.5,0.6,1,1.2,1.6,1.7
	c1.5,1.4,3.1,2.5,5,3.3c2,0.9,4.1,1.4,6.3,1.6c0.2,0,0.2,0,0.2-0.2C31.8,26.8,31.7,26,31.8,25.3c0.4-2.6,2.4-4.8,5-5.3
	c0.3-0.1,0.601-0.1,0.8-0.1c0.301,0,0.7,0,1,0H38.7c1.5,0.2,2.8,0.8,3.8,1.8c0.1,0.1,0.3,0.2,0.4,0.1c1.3-0.3,2.5-0.8,3.699-1.4
	c0,0,0.101-0.1,0.2-0.1c-0.5,1.5-1.399,2.6-2.7,3.5c0.101,0,0.101,0,0.2,0c0.9-0.1,1.8-0.4,2.7-0.7C47.6,22.9,47.8,22.7,48,22.7
	L48,22.7z"/>
</svg>
